<?xml version="1.0" encoding="utf-8"?>
<!-- Generator: Adobe Illustrator 27.6.1, SVG Export Plug-In . SVG Version: 6.00 Build 0)  -->
<svg version="1.1" id="Layer_1" xmlns="http://www.w3.org/2000/svg" xmlns:xlink="http://www.w3.org/1999/xlink" x="0px" y="0px"
	 viewBox="0 0 36.6 26.9" style="enable-background:new 0 0 36.6 26.9;" xml:space="preserve">
<style type="text/css">
	.st0{fill:#B0B1B1;}
	.st1{fill:#005A9C;}
	.st2{fill:#253A7B;}
</style>
<path class="st0" d="M36.6,9.4L36.6,9.4c0,5.2-4.2,9.4-9.4,9.4H16l-7.9,8.1l2.7-8.1H9.4C4.2,18.8,0,14.6,0,9.4v0C0,4.2,4.2,0,9.4,0
	h17.8C32.4,0,36.6,4.2,36.6,9.4z M8.9,8.4c-1,0-1.8,0.8-1.8,1.7c0,0.9,0.8,1.7,1.8,1.7c1,0,1.8-0.8,1.8-1.7
	C10.7,9.2,9.9,8.4,8.9,8.4z M18.3,8.4c-1,0-1.8,0.8-1.8,1.7c0,0.9,0.8,1.7,1.8,1.7c1,0,1.8-0.8,1.8-1.7C20.1,9.2,19.3,8.4,18.3,8.4z
	 M27.7,8.4c-1,0-1.8,0.8-1.8,1.7c0,0.9,0.8,1.7,1.8,1.7c1,0,1.8-0.8,1.8-1.7C29.5,9.2,28.7,8.4,27.7,8.4z"/>
</svg>
