<?xml version="1.0" encoding="utf-8"?>
<!-- Generator: Adobe Illustrator 27.6.1, SVG Export Plug-In . SVG Version: 6.00 Build 0)  -->
<svg version="1.1" id="Layer_1" xmlns="http://www.w3.org/2000/svg" xmlns:xlink="http://www.w3.org/1999/xlink" x="0px" y="0px"
	 viewBox="0 0 28.2 28.2" style="enable-background:new 0 0 28.2 28.2;" xml:space="preserve">
<style type="text/css">
	.st0{fill:#B0B1B1;}
	.st1{fill:#005A9C;}
	.st2{fill:#253A7B;}
</style>
<g>
	<path class="st0" d="M14.1,0c7.8,0,14.1,6.3,14.1,14.1s-6.3,14.1-14.1,14.1S0,21.9,0,14.1S6.3,0,14.1,0L14.1,0z M15,1.9v5.2h4
		c-0.2-0.7-0.5-1.4-0.9-2C17.3,3.4,16.1,2.3,15,1.9L15,1.9z M13.2,1.9c-1.1,0.4-2.3,1.5-3.2,3.2c-0.3,0.6-0.6,1.3-0.9,2h4V1.9z
		 M18.7,2.7c0.4,0.5,0.7,1,1,1.6c0.4,0.9,0.8,1.8,1.2,2.8h3.4C22.9,5.2,21,3.6,18.7,2.7L18.7,2.7z M9.4,2.7C7.2,3.6,5.3,5.2,3.9,7.2
		h3.4c0.3-1,0.7-2,1.2-2.8C8.7,3.8,9.1,3.2,9.4,2.7L9.4,2.7z M25.3,9h-3.9c0.3,1.3,0.4,2.7,0.5,4.2h4.5C26.2,11.7,25.9,10.3,25.3,9
		L25.3,9z M19.5,9H15v4.2h5.1C20,11.7,19.8,10.3,19.5,9L19.5,9z M13.2,9H8.7c-0.3,1.3-0.5,2.7-0.5,4.2h5.1L13.2,9L13.2,9z M6.8,9
		H2.9c-0.6,1.3-1,2.7-1.1,4.2h4.5C6.4,11.7,6.5,10.3,6.8,9L6.8,9z M26.4,15h-4.5c0,1.5-0.2,2.9-0.5,4.2h3.9
		C25.9,17.9,26.3,16.5,26.4,15L26.4,15z M20.1,15H15v4.2h4.5C19.8,17.9,20,16.5,20.1,15L20.1,15z M13.2,15H8.1
		c0.1,1.5,0.2,2.9,0.5,4.2h4.5L13.2,15L13.2,15z M6.3,15H1.8c0.1,1.5,0.5,2.9,1.1,4.2h3.9C6.5,17.9,6.4,16.5,6.3,15L6.3,15z
		 M24.3,21h-3.4c-0.3,1-0.7,2-1.2,2.8c-0.3,0.6-0.6,1.1-1,1.6C21,24.6,22.9,23,24.3,21L24.3,21z M19,21h-4v5.2
		c1.1-0.4,2.3-1.5,3.2-3.2C18.5,22.4,18.8,21.7,19,21z M13.2,21h-4c0.2,0.7,0.5,1.4,0.9,2c0.9,1.8,2,2.9,3.2,3.2V21z M7.3,21H3.9
		c1.4,2,3.3,3.6,5.5,4.5c-0.4-0.5-0.7-1-1-1.6C8,23,7.6,22,7.3,21L7.3,21z"/>
</g>
</svg>
