<?xml version="1.0" encoding="utf-8"?>
<!-- Generator: Adobe Illustrator 27.6.1, SVG Export Plug-In . SVG Version: 6.00 Build 0)  -->
<svg version="1.1" id="Layer_1" xmlns="http://www.w3.org/2000/svg" xmlns:xlink="http://www.w3.org/1999/xlink" x="0px" y="0px"
	 viewBox="0 0 16.4 22.2" style="enable-background:new 0 0 16.4 22.2;" xml:space="preserve">
<style type="text/css">
	.st0{fill:#B0B1B1;}
	.st1{fill:#005A9C;}
	.st2{fill:#253A7B;}
</style>
<g>
	<path class="st0" d="M0.1,6.2C-0.1,5.1,0,4,0.3,2.9c0.2-0.7,0.6-1.2,1.3-1.5c0.7-0.4,1.3-0.8,2-1.2C4.4-0.2,5.3,0,5.8,0.8
		c0.3,0.5,0.6,1,0.9,1.6C7,2.9,7.3,3.5,7.6,4C8.1,4.9,8,5.7,7,6.3C6.4,6.7,5.7,7,5.1,7.4C4.9,7.5,4.9,7.6,4.9,7.8
		c0.1,0.9,0.4,1.8,0.8,2.6c0.8,1.7,1.7,3.2,3,4.6c0.3,0.3,0.6,0.5,0.9,0.8c0.2,0.1,0.3,0.2,0.4,0c0.6-0.4,1.3-0.8,2-1.2
		c0.9-0.5,1.7-0.3,2.2,0.6c0.6,1,1.3,2.1,1.9,3.1c0.5,0.9,0.3,1.7-0.6,2.3c-0.6,0.4-1.2,0.7-1.8,1.1c-0.8,0.6-1.7,0.6-2.7,0.3
		c-1.4-0.4-2.5-1.2-3.6-2.1c-2.4-2-4.2-4.4-5.5-7.2C1,10.6,0.3,8.5,0.1,6.2L0.1,6.2z"/>
</g>
</svg>
