<?xml version="1.0" encoding="utf-8"?>
<!-- Generator: Adobe Illustrator 27.6.1, SVG Export Plug-In . SVG Version: 6.00 Build 0)  -->
<svg version="1.1" id="Layer_1" xmlns="http://www.w3.org/2000/svg" xmlns:xlink="http://www.w3.org/1999/xlink" x="0px" y="0px"
	 viewBox="0 0 7.8 14" style="enable-background:new 0 0 7.8 14;" xml:space="preserve">
<style type="text/css">
	.st0{fill:#B0B1B1;}
	.st1{fill:#005A9C;}
	.st2{fill:#253A7B;}
</style>
<g>
	<path class="st1" d="M5.5,9.6c0-0.2,0-0.4-0.1-0.5C5.4,8.9,5.3,8.8,5.2,8.6C5,8.5,4.9,8.4,4.6,8.3C4.4,8.2,4.2,8.1,3.9,8
		c-0.5-0.2-1-0.4-1.4-0.6C2,7.2,1.7,7,1.4,6.7C1.1,6.4,0.9,6.1,0.7,5.8C0.5,5.4,0.4,5,0.4,4.5c0-0.4,0.1-0.8,0.2-1.1
		C0.8,3.1,1,2.8,1.3,2.5c0.3-0.3,0.6-0.5,1-0.6c0.4-0.2,0.8-0.3,1.3-0.3V0h1.3v1.6C5.3,1.7,5.7,1.8,6.1,2C6.4,2.1,6.8,2.4,7,2.7
		c0.3,0.3,0.5,0.6,0.6,1C7.8,4.1,7.8,4.5,7.8,5H5.5c0-0.6-0.1-1-0.4-1.3C4.9,3.4,4.5,3.3,4.1,3.3c-0.2,0-0.4,0-0.6,0.1
		C3.3,3.4,3.2,3.5,3.1,3.6C2.9,3.7,2.9,3.9,2.8,4C2.8,4.2,2.7,4.4,2.7,4.5c0,0.2,0,0.3,0.1,0.5c0.1,0.1,0.1,0.3,0.3,0.4
		c0.1,0.1,0.3,0.2,0.5,0.4C3.8,5.9,4.1,6,4.4,6.1c0.5,0.2,1,0.4,1.4,0.6c0.4,0.2,0.8,0.4,1.1,0.7C7.2,7.7,7.4,8,7.6,8.3
		c0.2,0.3,0.2,0.8,0.2,1.2c0,0.4-0.1,0.8-0.2,1.2c-0.2,0.3-0.4,0.6-0.6,0.9c-0.3,0.3-0.6,0.5-1,0.6c-0.4,0.2-0.8,0.3-1.3,0.3V14H3.4
		v-1.5c-0.4,0-0.9-0.1-1.3-0.3c-0.4-0.1-0.8-0.4-1.1-0.6c-0.3-0.3-0.6-0.6-0.8-1C0.1,10.1,0,9.6,0,9.1h2.3c0,0.3,0,0.6,0.1,0.9
		c0.1,0.2,0.2,0.4,0.4,0.6c0.2,0.1,0.3,0.2,0.6,0.3c0.2,0.1,0.4,0.1,0.6,0.1c0.2,0,0.5,0,0.7-0.1c0.2-0.1,0.3-0.2,0.5-0.3
		c0.1-0.1,0.2-0.2,0.3-0.4C5.5,9.9,5.5,9.8,5.5,9.6z"/>
</g>
</svg>
