<?xml version="1.0" encoding="utf-8"?>
<!-- Generator: Adobe Illustrator 27.6.1, SVG Export Plug-In . SVG Version: 6.00 Build 0)  -->
<svg version="1.1" id="Layer_1" xmlns="http://www.w3.org/2000/svg" xmlns:xlink="http://www.w3.org/1999/xlink" x="0px" y="0px"
	 viewBox="0 0 11 14" style="enable-background:new 0 0 11 14;" xml:space="preserve">
<style type="text/css">
	.st0{fill:#B0B1B1;}
	.st1{fill:#005A9C;}
	.st2{fill:#253A7B;}
</style>
<path class="st1" d="M8.5,0h-8C0.4,0,0.2,0.1,0.1,0.1S0,0.4,0,0.5v11c0,0.7,0.3,1.3,0.7,1.8C1.2,13.7,1.8,14,2.5,14h8
	c0.1,0,0.3-0.1,0.4-0.1c0.1-0.1,0.1-0.2,0.1-0.4v-11c0-0.7-0.3-1.3-0.7-1.8C9.8,0.3,9.2,0,8.5,0L8.5,0z M8,10.5H3
	c-0.2,0-0.3-0.1-0.4-0.2c-0.1-0.2-0.1-0.3,0-0.5C2.7,9.6,2.8,9.5,3,9.5h5c0.2,0,0.3,0.1,0.4,0.2c0.1,0.2,0.1,0.3,0,0.5
	C8.3,10.4,8.2,10.5,8,10.5z M8,7.5H3c-0.2,0-0.3-0.1-0.4-0.2c-0.1-0.2-0.1-0.3,0-0.5C2.7,6.6,2.8,6.5,3,6.5h5c0.2,0,0.3,0.1,0.4,0.2
	c0.1,0.2,0.1,0.3,0,0.5C8.3,7.4,8.2,7.5,8,7.5z M8,4.5H3c-0.2,0-0.3-0.1-0.4-0.2c-0.1-0.2-0.1-0.3,0-0.5C2.7,3.6,2.8,3.5,3,3.5h5
	c0.2,0,0.3,0.1,0.4,0.2c0.1,0.2,0.1,0.3,0,0.5C8.3,4.4,8.2,4.5,8,4.5z"/>
</svg>
