<?xml version="1.0" encoding="utf-8"?>
<!-- Generator: Adobe Illustrator 27.6.1, SVG Export Plug-In . SVG Version: 6.00 Build 0)  -->
<svg version="1.1" id="Layer_1" xmlns="http://www.w3.org/2000/svg" xmlns:xlink="http://www.w3.org/1999/xlink" x="0px" y="0px"
	 viewBox="0 0 17 12.9" style="enable-background:new 0 0 17 12.9;" xml:space="preserve">
<style type="text/css">
	.st0{fill:#B0B1B1;}
	.st1{fill:#005A9C;}
	.st2{fill:#253A7B;}
</style>
<path class="st1" d="M0.9,3.1C0.3,3.3-0.1,3.9,0,4.5L0.2,5l15.1-3.6l-0.1-0.5c-0.1-0.6-0.7-1-1.3-0.8L0.9,3.1z M0.5,6.4L1.8,12
	c0.1,0.6,0.7,1,1.3,0.8l13-3.1c0.6-0.1,1-0.7,0.8-1.3l-1.4-5.7L0.5,6.4z M3.2,6.9l1.9-0.5C5.5,6.3,6,6.6,6.1,7l0.3,1.1
	c0.1,0.4-0.2,0.9-0.6,1L3.8,9.6c-0.4,0.1-0.9-0.2-1-0.6L2.6,7.9C2.4,7.4,2.7,7,3.2,6.9L3.2,6.9z M12,6.8c0.2-0.1,0.5,0,0.7,0
	c0.2-0.2,0.4-0.3,0.6-0.4c0.7-0.2,1.5,0.3,1.7,1c0.2,0.7-0.3,1.5-1,1.7c-0.2,0.1-0.5,0-0.7,0c-0.2,0.2-0.4,0.3-0.6,0.3
	c-0.7,0.2-1.5-0.3-1.7-1C10.8,7.7,11.3,6.9,12,6.8L12,6.8z M12.1,7.3c-0.5,0.1-0.7,0.6-0.6,1c0.1,0.5,0.6,0.7,1,0.6
	c0.1,0,0.2-0.1,0.2-0.1c-0.2-0.2-0.4-0.4-0.4-0.7c-0.1-0.3,0-0.6,0.1-0.8C12.3,7.3,12.2,7.3,12.1,7.3L12.1,7.3z M13.5,7
	c-0.1,0-0.2,0.1-0.2,0.1c0.2,0.2,0.4,0.4,0.4,0.7c0.1,0.3,0,0.6-0.1,0.8c0.1,0,0.2,0,0.3,0c0.5-0.1,0.7-0.6,0.6-1
	C14.4,7.1,13.9,6.9,13.5,7L13.5,7z M12.9,7.5c-0.1,0.1-0.1,0.3,0,0.5c0,0.2,0.1,0.3,0.2,0.4c0.1-0.1,0.1-0.3,0-0.5S13,7.6,12.9,7.5z
	 M3.2,10.6C3.2,10.6,3.2,10.6,3.2,10.6l4.9-1.2c0.1,0,0.3,0.1,0.3,0.2c0,0.1-0.1,0.3-0.2,0.3l-4.9,1.2c-0.1,0-0.3,0-0.3-0.2
	C3,10.8,3,10.6,3.2,10.6C3.2,10.6,3.2,10.6,3.2,10.6L3.2,10.6z M9.1,9.2L9.1,9.2C9.1,9.2,9.1,9.1,9.1,9.2L10,9
	c0.1,0,0.3,0.1,0.3,0.2s-0.1,0.3-0.2,0.3L9.3,9.7c-0.1,0-0.3,0-0.3-0.2C8.9,9.4,9,9.2,9.1,9.2C9.1,9.2,9.1,9.2,9.1,9.2L9.1,9.2z"/>
</svg>
