<?xml version="1.0" encoding="utf-8"?>
<!-- Generator: Adobe Illustrator 27.6.1, SVG Export Plug-In . SVG Version: 6.00 Build 0)  -->
<svg version="1.1" id="Layer_1" xmlns="http://www.w3.org/2000/svg" xmlns:xlink="http://www.w3.org/1999/xlink" x="0px" y="0px"
	 viewBox="0 0 12.2 16" style="enable-background:new 0 0 12.2 16;" xml:space="preserve">
<style type="text/css">
	.st0{fill:#B0B1B1;}
	.st1{fill:#005A9C;}
	.st2{fill:#253A7B;}
</style>
<g>
	<path class="st1" d="M12.1,14.8h-0.6V14c0-0.1-0.1-0.1-0.1-0.1H0.9c-0.1,0-0.1,0.1-0.1,0.1v0.7H0.1c-0.1,0-0.1,0.1-0.1,0.1v1
		C0,15.9,0.1,16,0.1,16h12c0.1,0,0.1-0.1,0.1-0.1v-1C12.2,14.8,12.2,14.8,12.1,14.8L12.1,14.8z"/>
	<path class="st1" d="M12.1,6.6L6.3,3.2c0,0,0,0,0,0V1.9h2.2c0.1,0,0.1,0,0.1-0.1V0.3c0-0.1,0-0.1-0.1-0.1H6.3V0.1
		C6.3,0,6.2,0,6.2,0H6C6,0,6,0,6,0.1v3.2c0,0,0,0,0,0L0.2,6.6C0.1,6.7,0,6.8,0,6.9v0.4c0,0.1,0.1,0.2,0.2,0.2H12
		c0.1,0,0.2-0.1,0.2-0.2V6.9C12.2,6.7,12.2,6.6,12.1,6.6L12.1,6.6z"/>
	<path class="st1" d="M1.5,13.1c-0.1,0-0.1,0.1-0.1,0.1v0.4c0,0.1,0.1,0.1,0.1,0.1h1.2c0.1,0,0.1-0.1,0.1-0.1v-0.4
		c0-0.1-0.1-0.1-0.1-0.1H2.5V8.3h0.2c0.1,0,0.1-0.1,0.1-0.1V7.9c0-0.1-0.1-0.1-0.1-0.1H1.5c-0.1,0-0.1,0.1-0.1,0.1v0.4
		c0,0.1,0.1,0.1,0.1,0.1h0.2v4.7H1.5z"/>
	<path class="st1" d="M9.6,13.1c-0.1,0-0.1,0.1-0.1,0.1v0.4c0,0.1,0.1,0.1,0.1,0.1h1.2c0.1,0,0.1-0.1,0.1-0.1v-0.4
		c0-0.1-0.1-0.1-0.1-0.1h-0.2l0-4.7h0.2c0.1,0,0.1-0.1,0.1-0.1V7.9c0-0.1-0.1-0.1-0.1-0.1H9.6c-0.1,0-0.1,0.1-0.1,0.1v0.4
		c0,0.1,0.1,0.1,0.1,0.1h0.2v4.7H9.6z"/>
	<path class="st1" d="M7.6,13.1c-0.1,0-0.1,0.1-0.1,0.1v0.4c0,0.1,0.1,0.1,0.1,0.1h1.2c0.1,0,0.1-0.1,0.1-0.1v-0.4
		c0-0.1-0.1-0.1-0.1-0.1H8.6l0-4.7h0.2c0.1,0,0.1-0.1,0.1-0.1V7.9c0-0.1-0.1-0.1-0.1-0.1H7.6c-0.1,0-0.1,0.1-0.1,0.1v0.4
		c0,0.1,0.1,0.1,0.1,0.1h0.2v4.7H7.6z"/>
	<path class="st1" d="M5.5,13.1c-0.1,0-0.1,0.1-0.1,0.1v0.4c0,0.1,0.1,0.1,0.1,0.1h1.2c0.1,0,0.1-0.1,0.1-0.1v-0.4
		c0-0.1-0.1-0.1-0.1-0.1H6.6V8.3h0.2c0.1,0,0.1-0.1,0.1-0.1V7.9c0-0.1-0.1-0.1-0.1-0.1H5.5c-0.1,0-0.1,0.1-0.1,0.1v0.4
		c0,0.1,0.1,0.1,0.1,0.1h0.2v4.7H5.5z"/>
	<path class="st1" d="M3.5,13.1c-0.1,0-0.1,0.1-0.1,0.1v0.4c0,0.1,0.1,0.1,0.1,0.1h1.2c0.1,0,0.1-0.1,0.1-0.1v-0.4
		c0-0.1-0.1-0.1-0.1-0.1H4.5l0-4.7h0.2c0.1,0,0.1-0.1,0.1-0.1V7.9c0-0.1-0.1-0.1-0.1-0.1H3.5c-0.1,0-0.1,0.1-0.1,0.1v0.4
		c0,0.1,0.1,0.1,0.1,0.1h0.2v4.7H3.5z"/>
</g>
</svg>
