<?xml version="1.0" encoding="utf-8"?>
<!-- Generator: Adobe Illustrator 27.6.1, SVG Export Plug-In . SVG Version: 6.00 Build 0)  -->
<svg version="1.1" id="Layer_1" xmlns="http://www.w3.org/2000/svg" xmlns:xlink="http://www.w3.org/1999/xlink" x="0px" y="0px"
	 viewBox="0 0 13.6 12" style="enable-background:new 0 0 13.6 12;" xml:space="preserve">
<style type="text/css">
	.st0{fill:#B0B1B1;}
	.st1{fill:#005A9C;}
	.st2{fill:#253A7B;}
</style>
<g>
	<path class="st1" d="M13.5,10.7L7.6,0.4C7.2-0.1,6.4-0.1,6,0.4L0.1,10.7C-0.2,11.3,0.2,12,0.9,12h11.8C13.4,12,13.8,11.3,13.5,10.7
		z M6.8,3.6c0.4,0,0.7,0.3,0.7,0.7L7.4,8.2c0,0.3-0.3,0.5-0.6,0.5c-0.3,0-0.6-0.2-0.6-0.5L6.1,4.3C6.1,3.9,6.4,3.6,6.8,3.6z
		 M6.8,10.6c-0.4,0-0.7-0.3-0.7-0.7s0.3-0.7,0.7-0.7s0.7,0.3,0.7,0.7C7.5,10.3,7.2,10.6,6.8,10.6z"/>
</g>
</svg>
