<?xml version="1.0" encoding="utf-8"?>
<!-- Generator: Adobe Illustrator 27.6.1, SVG Export Plug-In . SVG Version: 6.00 Build 0)  -->
<svg version="1.1" id="Layer_1" xmlns="http://www.w3.org/2000/svg" xmlns:xlink="http://www.w3.org/1999/xlink" x="0px" y="0px"
	 viewBox="0 0 9.2 14" style="enable-background:new 0 0 9.2 14;" xml:space="preserve">
<style type="text/css">
	.st0{fill:#B0B1B1;}
	.st1{fill:#005A9C;}
	.st2{fill:#253A7B;}
</style>
<g>
	<g>
		<path class="st1" d="M4.4,0c2.4,0,4.8,1.1,4.8,3.8c0,2.5-2.8,3.4-3.4,4.3C5.4,8.7,5.5,9.7,4.3,9.7C3.4,9.7,3,9,3,8.4
			c0-2.3,3.3-2.8,3.3-4.6c0-1-0.7-1.6-1.8-1.6c-2.4,0-1.5,2.5-3.3,2.5C0.6,4.7,0,4.3,0,3.5C0,1.6,2.1,0,4.4,0z M4.3,10.9
			c0.9,0,1.6,0.7,1.6,1.6S5.2,14,4.3,14s-1.6-0.7-1.6-1.6C2.8,11.6,3.5,10.9,4.3,10.9z"/>
	</g>
</g>
</svg>
