<?xml version="1.0" encoding="utf-8"?>
<!-- Generator: Adobe Illustrator 27.6.1, SVG Export Plug-In . SVG Version: 6.00 Build 0)  -->
<svg version="1.1" id="Layer_1" xmlns="http://www.w3.org/2000/svg" xmlns:xlink="http://www.w3.org/1999/xlink" x="0px" y="0px"
	 viewBox="0 0 13.8 10" style="enable-background:new 0 0 13.8 10;" xml:space="preserve">
<style type="text/css">
	.st0{fill:#B0B1B1;}
	.st1{fill:#005A9C;}
	.st2{fill:#253A7B;}
</style>
<g>
	<path class="st1" d="M2.3,1.2c0,0.6-0.5,1.2-1.2,1.2S0,1.8,0,1.2C0,0.5,0.5,0,1.2,0S2.3,0.5,2.3,1.2"/>
	<path class="st1" d="M5.8,2.3h6.9c0.4,0,0.8-0.2,1-0.6c0.2-0.4,0.2-0.8,0-1.2c-0.2-0.4-0.6-0.6-1-0.6H5.8C5.4,0,5,0.2,4.8,0.6
		c-0.2,0.4-0.2,0.8,0,1.2C5,2.1,5.4,2.3,5.8,2.3z"/>
	<path class="st1" d="M2.3,5c0,0.6-0.5,1.2-1.2,1.2S0,5.6,0,5s0.5-1.2,1.2-1.2S2.3,4.4,2.3,5"/>
	<path class="st1" d="M12.7,3.8H5.8c-0.4,0-0.8,0.2-1,0.6c-0.2,0.4-0.2,0.8,0,1.2c0.2,0.4,0.6,0.6,1,0.6h6.9c0.4,0,0.8-0.2,1-0.6
		c0.2-0.4,0.2-0.8,0-1.2C13.5,4.1,13.1,3.8,12.7,3.8z"/>
	<path class="st1" d="M2.3,8.8c0,0.6-0.5,1.2-1.2,1.2S0,9.5,0,8.8c0-0.6,0.5-1.2,1.2-1.2S2.3,8.2,2.3,8.8"/>
	<path class="st1" d="M12.7,7.7H5.8c-0.4,0-0.8,0.2-1,0.6c-0.2,0.4-0.2,0.8,0,1.2C5,9.8,5.4,10,5.8,10h6.9c0.4,0,0.8-0.2,1-0.6
		c0.2-0.4,0.2-0.8,0-1.2C13.5,7.9,13.1,7.7,12.7,7.7z"/>
</g>
</svg>
